<svg width="425" height="289" viewBox="0 0 425 289" fill="none" xmlns="http://www.w3.org/2000/svg">
<path fill-rule="evenodd" clip-rule="evenodd" d="M300.265 18.9617C279.129 18.9617 262.002 36.1038 262.002 57.2361C262.002 90.0414 245.607 106.436 212.794 106.436C179.999 106.436 163.582 90.0379 163.582 57.2361C163.582 36.1038 146.454 18.9617 125.319 18.9617C104.183 18.9617 87.0552 36.1038 87.0552 57.2361C87.0552 78.3722 104.183 95.5143 125.319 95.5143C158.132 95.5143 174.531 111.913 174.531 144.727C174.531 165.862 191.658 182.99 212.797 182.99C233.929 182.99 251.083 165.862 251.083 144.727C251.083 111.913 267.478 95.5143 300.268 95.5143C321.427 95.5143 338.554 78.3722 338.554 57.2361C338.554 36.1038 321.424 18.9617 300.265 18.9617Z" fill="#BB366B"/>
<path fill-rule="evenodd" clip-rule="evenodd" d="M386.711 106.375C365.575 106.375 348.448 123.517 348.448 144.649C348.448 177.455 332.052 193.85 299.239 193.85C266.445 193.85 250.027 177.451 250.027 144.649C250.027 123.517 232.9 106.375 211.765 106.375C190.628 106.375 173.501 123.517 173.501 144.649C173.501 165.785 190.628 182.927 211.765 182.927C244.577 182.927 260.976 199.326 260.976 232.14C260.976 253.275 278.104 270.403 299.243 270.403C320.375 270.403 337.529 253.275 337.529 232.14C337.529 199.326 353.924 182.927 386.714 182.927C407.873 182.927 425 165.785 425 144.649C425 123.517 407.869 106.375 386.711 106.375Z" fill="#ED5E97"/>
<path fill-rule="evenodd" clip-rule="evenodd" d="M164.028 231.21C164.028 210.074 146.885 192.947 125.753 192.947C92.948 192.947 76.5525 176.552 76.5525 143.738C76.5525 110.944 92.9515 94.5263 125.753 94.5263C146.885 94.5263 164.028 77.399 164.028 56.2631C164.028 35.1272 146.885 18 125.753 18C104.617 18 87.4751 35.1272 87.4751 56.2631C87.4751 89.0761 71.0761 105.476 38.2631 105.476C17.1272 105.476 0 122.602 0 143.742C0 164.874 17.1272 182.028 38.2631 182.028C71.0761 182.028 87.4751 198.423 87.4751 231.213C87.4751 252.372 104.617 269.499 125.753 269.499C146.885 269.499 164.028 252.368 164.028 231.21Z" fill="#F28E72"/>
</svg>
