<svg width="500" height="500" viewBox="0 0 500 500" fill="none" xmlns="http://www.w3.org/2000/svg">
<g clip-path="url(#clip0)">
<path d="M464.084 85.3815C513.966 125.808 509.182 181.306 466.425 212.945C445.92 228.119 404.631 225.179 381.146 235.89C350.508 249.864 334.957 275.745 311.479 296.408C253.082 347.805 234.087 322.397 167.6 323.07C120.857 323.544 76.4218 362.942 29.5909 335.89C-27.6439 302.829 7.79929 236.629 54.5312 211.07C108.203 181.715 74.4373 112.708 151.642 61.8733C227.588 11.8682 389.998 23.6584 464.084 85.3815Z" fill="#F28E72"/>
<g opacity="0.899994">
<g opacity="0.899994">
<path opacity="0.899994" d="M464.084 85.3815C513.966 125.808 509.182 181.306 466.425 212.945C445.92 228.119 404.631 225.179 381.146 235.89C350.508 249.864 334.957 275.745 311.479 296.408C253.082 347.805 234.087 322.397 167.6 323.07C120.857 323.544 76.4218 362.942 29.5909 335.89C-27.6439 302.829 7.79929 236.629 54.5312 211.07C108.203 181.715 74.4373 112.708 151.642 61.8733C227.588 11.8682 389.998 23.6584 464.084 85.3815Z" fill="white"/>
</g>
</g>
<path d="M495.799 454.623C495.799 462.564 385.582 469 249.621 469C113.661 469 3.44385 462.564 3.44385 454.623C3.44385 446.683 113.661 440.247 249.621 440.247C385.582 440.247 495.799 446.683 495.799 454.623Z" fill="#FBE0D9"/>
<path d="M70.9352 113.726C70.7219 113.923 70.1035 114.723 69.2186 117.816C68.0517 121.896 68.7704 125.616 70.1416 128.286C70.4057 127.735 70.5873 127.1 70.713 126.505C72.0309 120.27 71.6475 114.629 70.9352 113.726ZM79.2973 117.726C78.9697 118.343 78.4187 119.611 77.5959 122.208C76.5065 125.646 76.5002 128.408 77.1071 130.522C77.1503 130.415 77.1896 130.309 77.2252 130.203C78.7196 125.837 79.4471 119.823 79.2973 117.726V117.726ZM88.4035 123.075C88.3997 123.075 87.6861 123.08 86.0838 126.055C84.2478 129.464 83.7793 132.269 84.6528 134.634C84.7595 134.923 84.8852 135.206 85.0337 135.485C85.7117 135.194 86.292 134.722 86.711 134.082C88.4885 131.365 89.3405 125.781 88.679 123.598C88.5444 123.153 88.4047 123.075 88.4035 123.075ZM95.5835 143.987C95.5074 143.987 95.4299 143.973 95.3537 143.944C89.6389 141.731 86.2196 139.568 84.4446 136.971C83.1546 137.23 81.7097 137.058 80.341 136.406C79.0091 135.773 77.7293 134.667 76.81 133.076C75.953 133.738 74.8941 133.918 73.731 133.553C72.441 133.148 71.099 132.061 69.9829 130.491C69.2732 131.004 68.5456 131.082 68.0111 131.037C64.2363 130.73 59.122 123.216 58.7551 115.208C58.7386 114.859 59.009 114.561 59.3595 114.547C59.7023 114.516 60.007 114.801 60.0235 115.151C60.3714 122.75 65.2407 129.538 68.1139 129.771C68.5799 129.817 68.971 129.671 69.2973 129.416C67.5731 126.392 66.6779 122.076 67.9984 117.466C69.0903 113.65 70.0553 112.16 71.2132 112.435C73.4009 112.98 73.114 121.287 71.956 126.767C71.6932 128.01 71.3135 128.902 70.8819 129.539C71.8849 131.018 73.0708 132.014 74.1107 132.341C75.0401 132.633 75.7282 132.386 76.2361 131.902C75.2381 129.445 75.0324 126.094 76.3859 121.823C78.1686 116.2 78.8859 116.047 79.3151 115.957C79.6173 115.893 79.9182 115.993 80.1328 116.237C81.3059 117.561 79.9042 126.294 78.4263 130.615C78.2346 131.176 77.9972 131.667 77.7191 132.084C78.5076 133.629 79.6693 134.681 80.8844 135.259C81.8595 135.722 82.86 135.891 83.7704 135.806C83.6561 135.565 83.5533 135.323 83.4619 135.074C82.455 132.348 82.9464 129.201 84.9652 125.452C86.3047 122.966 87.3979 121.807 88.4035 121.805H88.4047C88.7031 121.805 89.2618 121.916 89.6567 122.646C90.7638 124.69 89.9626 131.431 87.7737 134.777C87.2582 135.565 86.5459 136.163 85.7206 136.553C87.4207 138.789 90.6508 140.761 95.8121 142.76C96.1397 142.887 96.3022 143.254 96.1752 143.582C96.0774 143.833 95.8375 143.987 95.5835 143.987" fill="#584844"/>
<path d="M147.158 196.338C147.229 196.536 147.511 197.058 148.638 198.1C150.525 199.845 152.242 200.62 153.883 200.44C154.018 200.427 154.154 200.407 154.29 200.38C154.199 199.994 154.015 199.638 153.739 199.332C151.951 197.374 148.025 196.135 147.158 196.338ZM142.727 201.733C143.153 202.047 143.765 202.464 144.639 203.011C146.362 204.088 147.898 204.586 149.21 204.69C147.106 203.386 144.354 202.232 142.727 201.733V201.733ZM143.854 210.539C141.918 210.539 139.881 210.097 138.062 209.029C137.76 208.85 137.659 208.463 137.836 208.161C138.012 207.856 138.402 207.758 138.704 207.934C143.234 210.594 149.089 208.737 150.294 206.8C150.434 206.574 150.562 206.284 150.481 205.948C148.689 206.138 146.485 205.663 143.966 204.088C140.734 202.068 140.486 201.467 140.506 200.986C140.519 200.703 140.68 200.454 140.939 200.322C142.202 199.681 147.928 202.32 150.315 203.888C150.628 204.094 150.891 204.316 151.104 204.553C152.16 204.296 152.977 203.75 153.52 203.097C153.893 202.651 154.142 202.162 154.267 201.673C154.182 201.686 154.097 201.696 154.012 201.705C151.983 201.909 149.946 201.037 147.776 199.032C146.286 197.654 145.707 196.705 145.9 195.952C145.962 195.713 146.162 195.285 146.812 195.123C148.568 194.686 152.903 196.533 154.676 198.477C155.076 198.913 155.346 199.428 155.491 199.979C157.148 199.201 158.9 197.455 160.974 194.556C161.179 194.271 161.574 194.205 161.861 194.409C162.145 194.613 162.211 195.01 162.007 195.295C159.608 198.646 157.609 200.545 155.6 201.321C155.521 202.215 155.152 203.124 154.497 203.911C153.853 204.682 152.915 205.345 151.727 205.703C151.853 206.274 151.739 206.879 151.372 207.47C150.302 209.193 147.231 210.539 143.854 210.539" fill="#584844"/>
<path d="M60.5572 226.982L93.5169 169.126L102.714 219.324L60.5572 226.982ZM160.669 208.796L140.885 212.389L122.924 114.355L84.7522 121.288L22.5518 231.749L29.2303 268.2L109.013 253.707L114.477 283.52L152.647 276.586L147.185 246.774L166.969 243.179L160.669 208.796Z" fill="#F28E72"/>
<path d="M320 107.686C319.261 100.914 317.909 94.897 315.941 89.6341C313.973 84.3726 311.014 79.2126 307.065 74.158C303.117 69.1021 297.74 64.7153 290.935 60.9964C284.13 57.2788 275.148 54.6899 263.989 53.2349C240.764 50.2092 222.659 54.3331 209.671 65.6016C196.679 76.8725 188.133 98.4622 184.026 130.371C182.355 143.348 181.941 155.344 182.785 166.36C183.627 177.374 185.648 186.233 188.852 192.938C193.233 202.358 199.434 209.879 207.451 215.502C215.467 221.125 226.448 224.846 240.399 226.665C265.28 229.906 283.72 225.13 295.718 212.332C307.714 199.538 315.674 177.91 319.595 147.45C321.344 133.864 321.478 120.609 320 107.686Z" fill="#F28E72"/>
<path d="M251.862 213.63C248.809 213.526 245.56 213.251 242.204 212.813C230.58 211.3 221.587 208.359 215.472 204.068C209.44 199.838 204.875 194.271 201.516 187.047L201.454 186.916C199.012 181.808 197.417 174.532 196.711 165.296C195.943 155.281 196.335 144.13 197.878 132.153C202.41 96.9566 211.77 82.2714 218.824 76.1516C227.049 69.016 238.149 65.791 252.761 66.2912C255.755 66.3928 258.926 66.6607 262.185 67.0848C271.563 68.3062 278.983 70.3821 284.239 73.2516C289.33 76.0348 293.307 79.2318 296.06 82.7565C299.112 86.662 301.399 90.6209 302.858 94.5239C304.411 98.677 305.507 103.615 306.115 109.199C307.467 121.02 307.34 133.264 305.743 145.667C302.222 173.014 295.421 192.23 285.529 202.778C278.192 210.606 267.18 214.156 251.865 213.632C251.864 213.63 251.862 213.63 251.862 213.63Z" fill="#584844"/>
<path d="M244.214 123.642C233.681 123.281 225.434 114.449 225.794 103.916C226.156 93.3713 234.988 85.1247 245.521 85.4853C256.053 85.8459 264.3 94.6778 263.939 105.223C263.577 115.756 254.746 124.002 244.214 123.642ZM276.711 108.062L276.876 103.252L273.923 102.288C273.802 100.645 273.527 99.0214 273.136 97.4584L275.638 95.6136L273.938 91.096L270.843 91.3449C270.105 89.8848 269.238 88.4944 268.266 87.1918L269.87 84.5153L266.573 80.9982L263.806 82.4139C262.559 81.355 261.245 80.3951 259.838 79.547L260.286 76.4756L255.896 74.4822L253.883 76.8413C252.351 76.3436 250.763 75.9703 249.121 75.7252L248.372 72.7136L243.549 72.5485L242.597 75.5005C240.942 75.6338 239.332 75.8967 237.769 76.2877L235.91 73.7979L231.394 75.4853L231.642 78.582C230.181 79.3324 228.792 80.1983 227.488 81.1709L224.824 79.5673L221.294 82.8507L222.711 85.6313C221.653 86.8642 220.693 88.191 219.857 89.5991L216.786 89.1369L214.78 93.5275L217.15 95.5399C216.654 97.0737 216.268 98.6735 216.034 100.304L213.01 101.064L212.845 105.874L215.811 106.84C215.931 108.494 216.207 110.106 216.598 111.667L214.095 113.514L215.795 118.031L218.891 117.782C219.629 119.242 220.496 120.631 221.467 121.935L219.864 124.612L223.161 128.129L225.929 126.712C227.163 127.771 228.488 128.732 229.895 129.58L229.434 132.651L233.825 134.644L235.85 132.287C237.383 132.784 238.971 133.156 240.614 133.402L241.362 136.415L246.184 136.579L247.136 133.625C248.792 133.492 250.402 133.23 251.965 132.838L253.811 135.328L258.329 133.641L258.091 130.545C259.553 129.796 260.929 128.928 262.246 127.956L264.909 129.56L268.439 126.275L267.022 123.497C268.081 122.262 269.041 120.935 269.878 119.529L272.949 119.99L274.954 115.598L272.583 113.586C273.081 112.053 273.466 110.466 273.699 108.822L276.711 108.062Z" fill="#F28E72"/>
<g opacity="0.300003">
<g opacity="0.300003">
<path opacity="0.300003" d="M280.409 195.146C278.903 197.888 275.451 198.899 272.709 197.395C269.968 195.887 268.971 192.436 270.477 189.695C271.982 186.954 275.419 185.957 278.161 187.462C280.903 188.968 281.915 192.405 280.409 195.146ZM296.755 196.404L297.104 193.163L295.155 192.368C295.147 191.254 295.052 190.15 294.867 189.074L296.643 187.946L295.74 184.809L293.63 184.827C293.205 183.801 292.703 182.819 292.111 181.893L293.314 180.165L291.276 177.629L289.332 178.439C288.555 177.669 287.718 176.958 286.804 176.318L287.275 174.252L284.417 172.684L282.924 174.192C281.899 173.756 280.84 173.437 279.779 173.193L279.42 171.116L276.178 170.753L275.383 172.701C274.269 172.708 273.179 172.819 272.089 173.005L270.962 171.211L267.825 172.13L267.841 174.241C266.831 174.666 265.848 175.169 264.907 175.759L263.18 174.54L260.644 176.579L261.455 178.523C260.699 179.302 259.972 180.138 259.332 181.051L257.281 180.594L255.713 183.453L257.208 184.93C256.786 185.971 256.454 187.016 256.209 188.092L254.131 188.437L253.782 191.678L255.73 192.487C255.722 193.587 255.834 194.691 256.019 195.767L254.228 196.894L255.146 200.032L257.255 200.029C257.681 201.04 258.183 202.023 258.775 202.949L257.557 204.675L259.594 207.227L261.554 206.402C262.33 207.171 263.168 207.883 264.082 208.523L263.61 210.588L266.469 212.157L267.961 210.663C268.987 211.084 270.046 211.404 271.107 211.647L271.466 213.725L274.708 214.088L275.503 212.139C276.602 212.133 277.706 212.023 278.796 211.837L279.924 213.629L283.046 212.71L283.045 210.601C284.054 210.174 285.037 209.672 285.979 209.082L287.69 210.3L290.241 208.262L289.417 206.317C290.187 205.541 290.898 204.703 291.554 203.79L293.603 204.246L295.173 201.388L293.678 199.91C294.1 198.87 294.417 197.825 294.662 196.764L296.755 196.404Z" fill="#F28E72"/>
</g>
</g>
<path d="M289.69 153.753C284.693 153.582 280.79 149.388 280.961 144.404C281.131 139.407 285.312 135.503 290.31 135.674C295.307 135.845 299.21 140.025 299.04 145.024C298.869 150.006 294.688 153.925 289.69 153.753ZM314.742 141.534L310.957 138.919C310.957 138.917 310.956 138.913 310.956 138.912C310.582 137.537 310.065 136.212 309.434 134.968L310.402 131.163L304.914 125.284L301.049 125.991C299.853 125.277 298.568 124.672 297.223 124.205C297.221 124.204 297.217 124.204 297.214 124.203L294.864 120.245L286.826 119.971L284.211 123.754L284.198 123.758C282.824 124.133 281.502 124.648 280.259 125.278L276.455 124.309L270.576 129.799L271.282 133.655C271.281 133.657 271.281 133.658 271.28 133.659C270.551 134.869 269.959 136.154 269.492 137.499L265.537 139.848L265.261 147.887L269.049 150.501C269.423 151.887 269.924 153.207 270.567 154.463C270.567 154.463 270.567 154.463 270.567 154.464L269.601 158.257L275.09 164.137L278.931 163.433C280.143 164.149 281.43 164.756 282.791 165.223C282.792 165.223 282.793 165.225 282.795 165.225L285.14 169.175L293.178 169.45L295.79 165.669C297.18 165.295 298.504 164.779 299.761 164.147H299.763L303.549 165.11L309.427 159.622L308.723 155.764C309.451 154.554 310.042 153.268 310.509 151.923H310.51L314.467 149.572L314.742 141.534Z" fill="white"/>
<path d="M335.901 69.1469C335.571 67.2982 336.804 65.5347 338.646 65.2058C340.495 64.8744 342.259 66.1022 342.589 67.9509C342.92 69.7983 341.692 71.5606 339.844 71.892C338 72.2221 336.231 70.9943 335.901 69.1469ZM342.361 77.3821L343.023 75.7873C343.024 75.7861 343.025 75.7861 343.027 75.7861C343.502 75.5398 343.947 75.2465 344.353 74.9163L345.828 74.9735L347.554 72.4938L346.989 71.1301C347.158 70.635 347.279 70.1169 347.345 69.5849V69.5824L348.612 68.4067L348.081 65.4331L346.485 64.7728C346.484 64.7703 346.483 64.769 346.483 64.7678C346.236 64.2929 345.943 63.8472 345.614 63.4409L345.67 61.9681L343.192 60.2413L341.831 60.8051C341.831 60.8051 341.831 60.8038 341.829 60.8038C341.328 60.6311 340.81 60.5156 340.279 60.4496L339.105 59.1824L336.131 59.7144L335.47 61.3117C334.991 61.5567 334.545 61.8462 334.135 62.1814L332.665 62.1256L330.939 64.604L331.499 65.9575C331.332 66.4603 331.211 66.9796 331.146 67.5166V67.5179L329.88 68.6911L330.412 71.6634L332.007 72.3249C332.253 72.8061 332.547 73.2505 332.878 73.6632C332.878 73.6644 332.878 73.6644 332.878 73.6644L332.822 75.1296L335.302 76.8564L336.662 76.2927C337.163 76.4666 337.683 76.5809 338.213 76.6469L339.388 77.9141L342.361 77.3821Z" fill="#F28E72"/>
<path d="M307.528 68.959L306.558 68.14C308.244 66.1441 310.635 63.6149 314.186 61.7548L314.775 62.881C310.989 64.8617 308.564 67.7337 307.528 68.959Z" fill="#F28E72"/>
<path d="M317.664 61.7373L317.163 60.5692C321.966 58.5123 326.984 57.7099 332.067 58.1822L331.949 59.4468C327.075 58.9821 322.269 59.7617 317.664 61.7373Z" fill="#F28E72"/>
<path d="M315.267 70.521L314.218 69.8074C316.826 65.9768 321.98 62.6414 326.751 61.6954L326.997 62.9397C322.527 63.8285 317.702 66.9456 315.267 70.521Z" fill="#F28E72"/>
<path d="M217.073 158.058C214.765 161.541 213.952 165.716 214.784 169.813C215.616 173.908 217.993 177.436 221.477 179.745C228.672 184.511 238.4 182.539 243.164 175.349C247.93 168.158 245.959 158.424 238.768 153.654C231.579 148.889 221.847 150.864 217.073 158.058ZM230.098 183.615C226.888 183.615 223.645 182.706 220.776 180.804C217.009 178.307 214.439 174.493 213.54 170.066C212.64 165.637 213.519 161.123 216.016 157.356C221.177 149.58 231.699 147.445 239.471 152.595C247.244 157.754 249.375 168.276 244.223 176.051C240.973 180.956 235.585 183.615 230.098 183.615V183.615ZM223.853 187.722C223.914 187.722 223.974 187.731 224.032 187.749C225.392 188.147 226.807 188.411 228.236 188.531C228.39 188.544 228.533 188.611 228.64 188.721L231.225 191.386L238.718 189.867L240.063 186.397C240.119 186.253 240.226 186.134 240.362 186.064C241.635 185.4 242.838 184.61 243.937 183.714C244.053 183.62 244.184 183.555 244.347 183.571L248.754 183.637L252.977 177.265L251.195 173.222C251.135 173.086 251.125 172.933 251.167 172.789C251.568 171.404 251.831 169.988 251.949 168.585C251.962 168.432 252.029 168.29 252.139 168.182L254.804 165.597L253.286 158.103L249.822 156.761C249.675 156.704 249.556 156.595 249.485 156.452C248.824 155.183 248.033 153.985 247.134 152.891C247.039 152.774 246.988 152.628 246.99 152.477L247.058 148.067L240.684 143.843L236.652 145.621C236.516 145.68 236.362 145.69 236.219 145.651C234.843 145.25 233.423 144.987 232 144.868C231.847 144.856 231.704 144.788 231.597 144.679L229.016 142.016L221.522 143.536L220.18 146.998C220.124 147.142 220.018 147.261 219.881 147.332C218.616 147.99 217.412 148.782 216.305 149.686C216.188 149.78 216.035 149.847 215.891 149.832L211.487 149.764L207.262 156.137L209.043 160.174C209.119 160.348 209.114 160.546 209.03 160.715C208.672 161.983 208.409 163.399 208.291 164.82C208.278 164.972 208.211 165.115 208.1 165.223L205.435 167.807L206.955 175.299L210.415 176.642C210.57 176.701 210.694 176.818 210.763 176.968C211.421 178.227 212.209 179.422 213.104 180.512C213.2 180.627 213.253 180.777 213.25 180.927L213.183 185.334L219.556 189.561L223.598 187.777C223.679 187.741 223.766 187.722 223.853 187.722V187.722ZM231.011 192.712C230.84 192.712 230.675 192.643 230.555 192.519L227.892 189.774C226.538 189.647 225.195 189.398 223.899 189.031L219.75 190.861C219.553 190.951 219.324 190.928 219.143 190.81L212.191 186.201C212.011 186.08 211.904 185.878 211.908 185.661L211.977 181.137C211.132 180.086 210.38 178.945 209.735 177.739L206.173 176.357C205.971 176.28 205.823 176.104 205.779 175.892L204.123 167.718C204.079 167.506 204.148 167.288 204.303 167.135L207.047 164.475C207.174 163.126 207.422 161.784 207.788 160.476L205.961 156.333C205.873 156.134 205.892 155.906 206.012 155.725L210.62 148.773C210.739 148.593 210.909 148.481 211.159 148.489L215.68 148.559C216.742 147.711 217.885 146.958 219.082 146.318L220.463 142.754C220.542 142.552 220.719 142.405 220.929 142.361L229.104 140.703C229.316 140.663 229.534 140.73 229.685 140.883L232.344 143.625C233.695 143.75 235.039 144.002 236.347 144.367L240.49 142.54C240.687 142.454 240.915 142.474 241.097 142.592L248.049 147.2C248.229 147.321 248.335 147.523 248.333 147.74L248.263 152.266C249.109 153.32 249.862 154.46 250.504 155.663L254.068 157.045C254.27 157.124 254.417 157.298 254.46 157.51L256.117 165.684C256.161 165.896 256.092 166.116 255.937 166.267L253.192 168.929C253.068 170.263 252.817 171.603 252.449 172.92L254.28 177.071C254.368 177.269 254.347 177.499 254.228 177.678L249.62 184.629C249.501 184.808 249.312 184.9 249.082 184.912L244.558 184.845C243.504 185.685 242.363 186.436 241.162 187.077L239.777 190.649C239.698 190.851 239.523 190.998 239.311 191.042L231.138 192.699C231.094 192.708 231.053 192.712 231.011 192.712" fill="white"/>
<path d="M372.028 206.646L421.238 161.791L414.49 212.377L372.028 206.646ZM472.865 220.254L452.937 217.565L466.117 118.773L427.669 113.585L334.407 199.448L329.508 236.18L409.867 247.026L405.86 277.069L444.307 282.257L448.314 252.215L468.242 254.903L472.865 220.254Z" fill="#F28E72"/>
<path d="M432.625 281.316C432.587 281.316 432.549 281.312 432.511 281.306C432.165 281.242 431.937 280.912 432 280.567L461.617 118.136C461.679 117.793 462.013 117.578 462.356 117.626C462.7 117.689 462.929 118.021 462.865 118.365L433.248 280.795C433.193 281.101 432.926 281.316 432.625 281.316Z" fill="#584844"/>
<path d="M458.904 120.865C458.884 121.439 458.403 121.888 457.829 121.869C457.255 121.849 456.804 121.368 456.825 120.792C456.844 120.218 457.326 119.769 457.9 119.788C458.474 119.808 458.923 120.291 458.904 120.865Z" fill="#584844"/>
<path d="M454.673 142.831C454.653 143.405 454.172 143.854 453.598 143.835C453.024 143.815 452.573 143.334 452.593 142.759C452.612 142.185 453.095 141.735 453.669 141.754C454.243 141.775 454.692 142.257 454.673 142.831Z" fill="#584844"/>
<path d="M450.442 164.797C450.423 165.371 449.94 165.821 449.366 165.802C448.792 165.781 448.342 165.3 448.362 164.725C448.381 164.151 448.864 163.703 449.437 163.721C450.011 163.741 450.462 164.223 450.442 164.797Z" fill="#584844"/>
<path d="M442.122 187.664C442.101 188.239 441.62 188.689 441.046 188.668C440.471 188.648 440.022 188.167 440.042 187.593C440.061 187.019 440.543 186.57 441.117 186.589C441.691 186.609 442.141 187.09 442.122 187.664Z" fill="#584844"/>
<path d="M441.979 208.73C441.96 209.304 441.478 209.755 440.904 209.735C440.33 209.714 439.88 209.233 439.9 208.658C439.92 208.084 440.401 207.635 440.975 207.654C441.549 207.674 442 208.156 441.979 208.73Z" fill="#584844"/>
<path d="M437.748 230.697C437.728 231.271 437.247 231.722 436.673 231.701C436.099 231.681 435.648 231.2 435.669 230.625C435.688 230.051 436.17 229.601 436.744 229.62C437.318 229.641 437.767 230.123 437.748 230.697Z" fill="#584844"/>
<path d="M433.517 252.663C433.497 253.237 433.016 253.688 432.442 253.668C431.868 253.647 431.418 253.166 431.437 252.591C431.458 252.017 431.939 251.568 432.513 251.587C433.087 251.607 433.536 252.09 433.517 252.663Z" fill="#584844"/>
<path d="M429.286 274.63C429.267 275.204 428.784 275.654 428.21 275.634C427.637 275.614 427.187 275.133 427.206 274.557C427.226 273.984 427.708 273.535 428.282 273.553C428.855 273.573 429.305 274.056 429.286 274.63Z" fill="#584844"/>
<path d="M441.081 188.264C440.789 188.264 440.525 188.061 440.462 187.761C440.388 187.42 440.605 187.082 440.949 187.008L444.102 186.332C444.45 186.263 444.782 186.475 444.856 186.819C444.93 187.162 444.711 187.499 444.368 187.573L441.215 188.25C441.17 188.259 441.126 188.264 441.081 188.264Z" fill="#584844"/>
<path d="M451.608 176.567C451.608 176.567 448.766 183.968 447.81 188.451C446.854 192.937 446.796 202.957 446.796 202.957" fill="#584844"/>
<path d="M446.796 203.592H446.792C446.442 203.59 446.16 203.304 446.161 202.954C446.164 202.542 446.23 192.816 447.19 188.319C448.146 183.837 450.898 176.643 451.015 176.339C451.141 176.012 451.507 175.85 451.835 175.974C452.163 176.1 452.327 176.468 452.201 176.794C452.172 176.868 449.366 184.202 448.431 188.585C447.499 192.955 447.431 202.862 447.431 202.961C447.43 203.31 447.145 203.592 446.796 203.592Z" fill="#584844"/>
<path d="M214.644 313.183C216.407 284.74 213.163 233.033 266.631 239.878C323.938 247.213 307.542 314.224 307.542 314.224L214.644 313.183Z" fill="#584844"/>
<path d="M274.873 272.756C274.873 285.64 264.428 296.086 251.543 296.086C238.657 296.086 228.211 285.64 228.211 272.756C228.211 259.871 238.657 249.425 251.543 249.425C264.428 249.425 274.873 259.871 274.873 272.756Z" fill="white"/>
<path d="M254.607 249.461C243.556 247.575 231.74 255.721 230.576 263.974L274.389 268.002C272.845 258.594 263.376 250.959 254.607 249.461Z" fill="#584844"/>
<path d="M269.397 272.175C269.084 278.274 265.76 283.061 261.972 282.867C258.185 282.673 255.369 277.57 255.682 271.47C255.995 265.372 259.319 260.584 263.106 260.778C266.894 260.972 269.711 266.074 269.397 272.175Z" fill="#584844"/>
<path d="M251.543 250.695C239.378 250.695 229.482 260.591 229.482 272.755C229.482 284.92 239.378 294.816 251.543 294.816C263.708 294.816 273.603 284.92 273.603 272.755C273.603 260.591 263.708 250.695 251.543 250.695ZM251.543 297.355C237.977 297.355 226.943 286.321 226.943 272.755C226.943 259.19 237.977 248.155 251.543 248.155C265.108 248.155 276.143 259.19 276.143 272.755C276.143 286.321 265.108 297.355 251.543 297.355Z" fill="#F28E72"/>
<g opacity="0.300003">
<g opacity="0.300003">
<path opacity="0.300003" d="M301.024 312.468C300.975 312.468 300.925 312.461 300.875 312.45C300.534 312.369 300.325 312.025 300.406 311.684C300.448 311.513 304.493 294.296 300.292 276.89C300.209 276.55 300.419 276.207 300.76 276.124C301.097 276.047 301.443 276.251 301.526 276.593C305.802 294.305 301.683 311.806 301.64 311.981C301.57 312.274 301.311 312.468 301.024 312.468Z" fill="white"/>
</g>
</g>
<g opacity="0.300003">
<g opacity="0.300003">
<path opacity="0.300003" d="M297.486 267.371C297.244 267.371 297.015 267.233 296.908 267C295.275 263.437 293.25 260.166 290.887 257.278C290.665 257.006 290.705 256.606 290.977 256.385C291.248 256.162 291.648 256.201 291.871 256.474C294.301 259.447 296.385 262.81 298.062 266.472C298.208 266.79 298.068 267.167 297.75 267.312C297.663 267.352 297.573 267.371 297.486 267.371Z" fill="white"/>
</g>
</g>
<path d="M95.6526 446.598C95.4938 446.598 95.3377 446.597 95.1802 446.592C91.6759 446.495 88.9118 443.576 89.0083 440.071C89.1035 436.568 91.9908 433.857 95.5281 433.9C95.5688 433.901 95.6094 433.901 95.65 433.901C99.3181 433.901 108.142 429.445 126.602 400.344C127.595 398.782 129.219 397.729 131.051 397.463C132.886 397.202 134.74 397.745 136.136 398.96C158.916 418.821 183.055 431.184 183.296 431.307C186.422 432.894 187.669 436.716 186.083 439.841C184.496 442.967 180.676 444.217 177.551 442.629C176.592 442.143 155.493 431.354 133.368 413.241C117.897 436.5 106.416 446.598 95.6526 446.598Z" fill="#584844"/>
<path d="M134.931 397.819C134.751 397.819 134.57 397.807 134.387 397.781C132.305 397.483 130.858 395.554 131.155 393.471C132.058 387.153 130.939 363.473 122.935 345.063C122.205 343.385 122.771 341.426 124.282 340.395C141.675 328.543 178.722 327.126 180.292 327.071C182.383 327.026 184.156 328.644 184.23 330.746C184.302 332.847 182.658 334.612 180.557 334.684C180.213 334.697 147.823 335.94 131.18 345.1C138.27 363.431 139.878 386.283 138.697 394.55C138.425 396.449 136.796 397.819 134.931 397.819Z" fill="#584844"/>
<path d="M141.329 392.888C138.795 386.913 127.378 387.591 120.674 392.712C117.091 395.449 112.242 403.683 111.732 406.668C111.223 409.652 113.291 412.356 116.841 412.049C121.218 411.669 127.228 405.308 127.228 405.308C123.23 409.229 128.389 411.996 136.087 406.325C140.357 403.18 144.166 399.579 141.329 392.888Z" fill="#F28E72"/>
<path d="M372.433 287.534C373.005 287.747 373.653 287.873 374.257 287.944C380.584 288.693 386.17 287.808 387.005 287.02C386.789 286.823 385.937 286.281 382.778 285.677C378.611 284.883 374.97 285.928 372.433 287.534ZM370.832 294.672C370.941 294.704 371.051 294.734 371.159 294.761C375.643 295.859 381.695 296.046 383.771 295.706C383.129 295.434 381.816 295 379.156 294.413C375.634 293.637 372.881 293.879 370.832 294.672V294.672ZM366.599 303.011C366.949 303.662 367.471 304.197 368.146 304.557C371.012 306.082 376.648 306.431 378.763 305.578C379.195 305.402 379.26 305.258 379.26 305.256C379.26 305.252 379.19 304.543 376.084 303.213C372.526 301.69 369.688 301.476 367.411 302.556C367.133 302.689 366.863 302.84 366.599 303.011ZM359.709 314.859C359.652 314.859 359.593 314.853 359.534 314.835C359.198 314.738 359.002 314.385 359.1 314.05C360.791 308.159 362.639 304.559 365.066 302.558C364.694 301.294 364.736 299.841 365.26 298.42C365.771 297.038 366.757 295.664 368.259 294.605C367.524 293.81 367.25 292.77 367.51 291.582C367.797 290.259 368.76 288.827 370.222 287.573C369.647 286.913 369.506 286.192 369.502 285.659C369.471 281.873 376.495 276.104 384.436 275.021C384.786 274.957 385.104 275.216 385.151 275.564C385.198 275.911 384.956 276.231 384.608 276.278C377.068 277.307 370.747 282.765 370.772 285.649C370.776 286.116 370.949 286.492 371.232 286.795C374.09 284.806 378.309 283.526 383.017 284.43C386.914 285.175 388.498 285.998 388.315 287.181C387.97 289.407 379.67 289.866 374.108 289.204C372.847 289.054 371.924 288.757 371.251 288.385C369.867 289.516 368.982 290.786 368.751 291.851C368.544 292.802 368.85 293.466 369.379 293.928C371.736 292.713 375.053 292.205 379.43 293.173C385.189 294.444 385.405 295.146 385.535 295.564C385.626 295.863 385.552 296.169 385.33 296.404C384.116 297.69 375.291 297.081 370.858 295.994C370.281 295.853 369.77 295.66 369.331 295.421C367.862 296.346 366.917 297.596 366.453 298.86C366.078 299.873 365.993 300.882 366.166 301.784C366.394 301.647 366.628 301.523 366.867 301.409C369.494 300.162 372.67 300.371 376.585 302.045C379.18 303.158 380.433 304.14 380.525 305.142C380.551 305.439 380.493 306.005 379.8 306.465C377.863 307.751 371.077 307.557 367.55 305.678C366.718 305.233 366.058 304.58 365.597 303.791C363.521 305.687 361.847 309.081 360.319 314.399C360.239 314.679 359.986 314.859 359.709 314.859" fill="#584844"/>
<path d="M194.425 444.477C195.26 444.209 194.981 443.402 194.047 443.402H176.857C144.124 439.936 121.253 444.581 135.664 445.676C150.075 446.773 134.648 446.542 124.125 450.524C113.6 454.504 202.406 455.508 210.482 450.524C217.931 445.927 182.826 448.195 194.425 444.477Z" fill="#584844"/>
<path d="M317.509 449.544L167.938 444.586L161.73 299.56L338.357 303.51L317.509 449.544Z" fill="#F28E72"/>
<path d="M214.643 446.769C214.315 446.769 214.037 446.519 214.011 446.186L202.021 300.527C201.992 300.178 202.252 299.872 202.601 299.843C202.961 299.824 203.258 300.074 203.287 300.423L215.277 446.082C215.304 446.431 215.045 446.739 214.696 446.767C214.677 446.768 214.661 446.769 214.643 446.769Z" fill="#584844"/>
<path d="M317.509 449.544L357.711 443.424L370.372 308.571L338.357 303.51L317.509 449.544Z" fill="#F28E72"/>
<g opacity="0.199997">
<g opacity="0.199997">
<path opacity="0.199997" d="M317.509 449.544L357.711 443.424L370.372 308.571L338.357 303.51L317.509 449.544Z" fill="#584844"/>
</g>
</g>
<path d="M180.721 416.63L177.033 330.468C176.648 321.475 183.945 314.027 192.944 314.229L304.751 316.728C314.089 316.937 321.144 325.259 319.824 334.503L307.428 421.339C306.304 429.209 299.435 434.97 291.491 434.707L195.768 431.534C187.628 431.263 181.069 424.769 180.721 416.63Z" fill="#584844"/>
<path d="M292.789 399.925C292.337 399.925 291.887 399.742 291.557 399.383L280.689 387.487L268.961 398.203C268.281 398.825 267.227 398.776 266.605 398.098L255.737 386.201L244.009 396.917C243.329 397.538 242.274 397.49 241.655 396.812L230.785 384.916L219.057 395.632C218.732 395.93 218.293 396.088 217.858 396.068C217.417 396.047 217.001 395.853 216.703 395.527L205.833 383.631L194.105 394.346C193.427 394.968 192.372 394.918 191.751 394.24C191.13 393.561 191.179 392.506 191.858 391.886L204.815 380.047C205.494 379.423 206.549 379.473 207.17 380.152L218.039 392.048L229.767 381.33C230.093 381.032 230.53 380.878 230.967 380.896C231.407 380.915 231.824 381.111 232.122 381.436L242.99 393.333L254.719 382.617C255.397 381.994 256.452 382.043 257.074 382.722L267.942 394.618L279.67 383.903C280.35 383.279 281.403 383.328 282.024 384.008L294.019 397.134C294.64 397.813 294.592 398.868 293.912 399.488C293.592 399.781 293.19 399.925 292.789 399.925Z" fill="white"/>
<path d="M91.8627 452.628L83.917 448.838L76.8284 414.344L80.6755 410.108L91.8627 452.628Z" fill="#F28E72"/>
<path d="M91.8627 452.628L102.407 446.467L93.3673 418.048L80.6755 410.108L91.8627 452.628Z" fill="#F28E72"/>
<g opacity="0.199997">
<g opacity="0.199997">
<path opacity="0.199997" d="M91.8627 452.628L102.407 446.467L93.3673 418.048L80.6755 410.108L91.8627 452.628Z" fill="#584844"/>
</g>
</g>
<path d="M264.792 458.898C264.493 458.898 264.2 458.893 263.915 458.885C260.41 458.789 257.647 455.87 257.743 452.364C257.838 448.862 260.735 446.107 264.263 446.194C274.043 446.513 294.743 440.505 306.568 429.027C307.299 428.318 308.189 427.795 309.165 427.501C329.211 421.485 336.672 433.639 336.979 434.161L326.051 440.622C326.051 440.622 326.093 440.711 326.197 440.854C326.076 440.687 323.237 436.996 314.197 439.28C299.358 452.825 276.58 458.898 264.792 458.898Z" fill="#584844"/>
<path d="M264.088 467.337L240.964 465.881L239.139 423.248L270.217 424.41L264.088 467.337Z" fill="#F28E72"/>
<path d="M264.089 467.337L269.494 461.959L272.844 435.375L270.217 424.41L264.089 467.337Z" fill="#F28E72"/>
<g opacity="0.199997">
<g opacity="0.199997">
<path opacity="0.199997" d="M264.089 467.337L269.494 461.959L272.844 435.375L270.217 424.41L264.089 467.337Z" fill="#584844"/>
</g>
</g>
<path d="M398.06 451.193C397.257 451.193 396.447 450.94 395.758 450.417C382.56 440.385 364.72 422.578 357.874 405.398C357.774 405.147 357.702 404.885 357.657 404.618C354.319 384.771 351.13 342.987 350.995 341.218C350.836 339.121 352.407 337.291 354.505 337.132C356.597 336.979 358.433 338.544 358.592 340.643C358.623 341.069 361.845 383.261 365.101 402.95C371.93 419.654 390.442 436.807 400.368 444.351C402.043 445.624 402.369 448.014 401.096 449.688C400.347 450.675 399.21 451.193 398.06 451.193Z" fill="#584844"/>
<path d="M415.667 453.118C412.723 453.118 409.383 451.782 405.746 449.15C404.04 447.916 403.658 445.535 404.892 443.831C406.127 442.127 408.507 441.745 410.211 442.978C413.356 445.255 415.074 445.5 415.667 445.5C417.771 445.5 419.476 447.205 419.476 449.309C419.476 451.412 417.771 453.118 415.667 453.118Z" fill="#584844"/>
<path d="M406.813 449.042C410.889 436.934 427.598 439.327 433.352 441.125C439.105 442.923 444.29 445.185 447.406 447.222C450.523 449.26 450.572 452.664 446.417 454.608C441.292 457.004 428.437 454.877 428.437 454.877C435.091 457.791 428.424 462.46 416.749 457.874C412.949 456.381 405.374 453.477 406.813 449.042Z" fill="#F28E72"/>
<path d="M366.256 346.443C364.744 356.73 356.225 364.315 349.297 363.297C342.367 362.279 342.078 353.091 343.591 342.806C345.103 332.517 347.843 325.027 354.773 326.047C361.701 327.064 367.768 336.156 366.256 346.443Z" fill="#584844"/>
<path d="M199.715 304.339C199.715 304.912 199.249 305.378 198.675 305.378C198.1 305.378 197.634 304.912 197.634 304.339C197.634 303.765 198.1 303.299 198.675 303.299C199.249 303.299 199.715 303.765 199.715 304.339Z" fill="#584844"/>
<path d="M209.256 311.833C209.256 312.408 208.79 312.874 208.216 312.874C207.641 312.874 207.175 312.408 207.175 311.833C207.175 311.259 207.641 310.793 208.216 310.793C208.79 310.793 209.256 311.259 209.256 311.833Z" fill="#584844"/>
<path d="M210.419 434.872C210.419 435.447 209.953 435.912 209.379 435.912C208.804 435.912 208.338 435.447 208.338 434.872C208.338 434.298 208.804 433.832 209.379 433.832C209.953 433.832 210.419 434.298 210.419 434.872Z" fill="#584844"/>
<path d="M219.959 442.367C219.959 442.941 219.493 443.407 218.918 443.407C218.344 443.407 217.878 442.941 217.878 442.367C217.878 441.792 218.344 441.326 218.918 441.326C219.493 441.326 219.959 441.792 219.959 442.367Z" fill="#584844"/>
<path d="M50.9257 442.133H50.9231C50.9206 442.135 50.447 442.375 50.2629 444.495C50.0775 446.632 50.4648 448.081 51.4488 448.92C51.671 449.11 51.9262 449.27 52.2093 449.401C52.5674 449.004 52.8137 448.559 52.8987 448.094C53.239 446.255 52.3629 443.56 51.3802 442.471C51.125 442.187 50.9612 442.133 50.9257 442.133ZM42.9381 443.235C42.9305 443.713 42.9736 444.515 43.1628 445.85C43.4206 447.662 44.0897 449.054 45.0915 449.941C44.7944 447.392 43.6631 444.439 42.9381 443.235V443.235ZM35.8647 444.343C35.791 444.538 35.6577 445.179 35.9713 446.938C36.3891 449.274 37.9013 450.827 39.5772 451.646C39.5684 451.375 39.5188 451.076 39.4287 450.747C38.432 447.118 36.5363 444.617 35.8647 444.343V444.343ZM36.9617 454.853C33.9411 454.853 29.8553 453.021 27.6511 449.838C27.4518 449.551 27.5229 449.155 27.8111 448.955C28.0993 448.755 28.4942 448.827 28.6948 449.117C31.064 452.537 36.2862 454.362 38.6047 453.281C38.8484 453.167 39.0465 453.023 39.1989 452.851C37.1268 451.893 35.2324 450.019 34.722 447.161C34.4338 445.551 34.2052 443.376 35.5333 443.077C37.354 442.668 39.7359 447.072 40.6527 450.41C40.8228 451.027 40.8761 451.599 40.819 452.114C41.6214 452.334 42.4099 452.391 43.0866 452.293C43.6364 452.213 44.4185 451.987 44.8325 451.347C43.2898 450.305 42.2512 448.467 41.9058 446.027C41.4132 442.556 41.7827 441.95 42.1674 441.655C42.4175 441.463 42.7349 441.426 43.0409 441.556C44.3982 442.133 46.0437 447.058 46.3586 449.845C46.3929 450.153 46.3929 450.447 46.3612 450.727C46.8805 450.934 47.4543 451.047 48.074 451.058C49.1748 451.121 50.2629 450.772 51.1339 450.259C50.9536 450.148 50.7835 450.022 50.6235 449.885C49.3055 448.76 48.7748 446.961 48.997 444.386C49.1697 442.396 49.623 441.309 50.4229 440.966C50.7035 440.842 51.2748 440.726 51.9566 441.27C53.3279 442.367 54.6077 445.838 54.1481 448.326C54.0516 448.84 53.8307 449.334 53.5095 449.787C55.8393 450.189 59.1176 449.534 61.9452 448.836C62.2842 448.753 62.6296 448.959 62.7134 449.301C62.7985 449.641 62.5902 449.985 62.25 450.069C58.8091 450.92 55.1055 451.612 52.4886 450.852C51.3256 451.778 49.689 452.339 48.0473 452.328C47.2994 452.314 46.6024 452.179 45.9663 451.938C45.466 452.79 44.5353 453.366 43.2695 453.55C42.4264 453.676 41.4335 453.595 40.4279 453.308C40.1422 453.784 39.7106 454.166 39.1417 454.433C38.5348 454.715 37.7883 454.852 36.9617 454.853" fill="#584844"/>
<path d="M222.797 464.449L226.238 458.482L222.797 452.515H219.114L221.195 458.483L219.114 464.449H222.797Z" fill="#584844"/>
<path d="M219.356 461.592C217.642 461.592 216.245 460.196 216.245 458.481C216.245 456.767 217.642 455.383 219.356 455.383L213.506 454.213L211.954 458.937L214.564 462.923L219.356 461.592Z" fill="#584844"/>
<path d="M216.415 461.592C214.701 461.592 213.304 460.196 213.304 458.482C213.304 456.768 214.701 455.384 216.415 455.384C218.129 455.384 219.513 456.768 219.513 458.482C219.513 460.196 218.129 461.592 216.415 461.592ZM219.855 452.515H212.961L209.52 458.482L212.961 464.449H219.855L223.296 458.482L219.855 452.515Z" fill="#F28E72"/>
<path d="M462.787 452.117L460.231 447.685L462.787 443.254H465.524L463.977 447.685L465.524 452.117H462.787Z" fill="#F28E72"/>
<path d="M465.343 449.995C466.616 449.995 467.654 448.959 467.654 447.686C467.654 446.413 466.616 445.384 465.343 445.384L469.688 444.515L470.84 448.023L468.902 450.983L465.343 449.995Z" fill="#F28E72"/>
<path d="M467.527 449.995C468.799 449.995 469.838 448.959 469.838 447.686C469.838 446.413 468.799 445.384 467.527 445.384C466.255 445.384 465.227 446.413 465.227 447.686C465.227 448.959 466.255 449.995 467.527 449.995ZM464.971 443.253H470.092L472.648 447.686L470.092 452.117H464.971L462.417 447.686L464.971 443.253Z" fill="#584844"/>
<path d="M367.635 458H373.372C374.866 458 376.088 456.778 376.088 455.283C376.088 453.791 374.866 452.569 373.372 452.569H367.635C366.141 452.569 364.919 453.791 364.919 455.283C364.919 456.778 366.141 458 367.635 458Z" fill="#584844"/>
<path d="M358.471 452.877C359.888 449.873 363.322 448.515 366.142 449.844C368.962 451.175 370.1 454.688 368.683 457.692C367.266 460.696 363.833 462.055 361.013 460.724C358.193 459.395 357.055 455.881 358.471 452.877Z" fill="#F28E72"/>
<path d="M360.055 460.713L361.629 461.456L367.098 449.854L365.525 449.112L360.055 460.713Z" fill="#584844"/>
</g>
<defs>
<clipPath id="clip0">
<rect width="500" height="500" fill="white"/>
</clipPath>
</defs>
</svg>
